<svg xmlns="http://www.w3.org/2000/svg" viewBox="0 0 437.15 497"><defs><style>.cls-1{fill:#fff;}</style></defs><title>Asset 1</title><g id="Layer_2" data-name="Layer 2"><g id="Layer_1-2" data-name="Layer 1"><path class="cls-1" d="M194.87,496.9q-5.91-12.22-11.82-24.44l-42.13-87.39q-24.81-51.49-49.62-103Q65.71,229,40.08,176c-11-22.88-22.27-45.66-33-68.67C-12.49,65.49,10.26,15.79,54.59,2.91A74.57,74.57,0,0,1,71.95.06c3.88-.18,3.91-.19,5.54,3.35q22.89,49.66,45.77,99.33l71,154.13c.54,1.17,1.11,2.31,2,4.2Q256.48,130.06,316,.25H437.15L195.7,497Z"/></g></g></svg>