<svg xmlns="http://www.w3.org/2000/svg" viewBox="0 0 268.96 437.6"><defs><style>.cls-1{fill:#7e9bc0;}</style></defs><title>Asset 1</title><g id="Layer_2" data-name="Layer 2"><g id="Layer_1-2" data-name="Layer 1"><path class="cls-1" d="M261.27,292.43c-1.52-5.81-.92-11.95-5.52-16.44-2.62-2.57-6.1-4.71-9-7.13-10.85-9.09-20.3-21.57-28.17-33.28a136.85,136.85,0,0,1-34.08,19.36c2.25,4.18,4.6,8.26,6,12.81-38.24-3.73-76.65-3.53-114.91-6.84,9.12-11.28,17.71-22.64,25.75-34.72,5.9-8.85,11.73-17.73,17.66-26.56,2.24-3.35,4.49-6.67,6.83-10,.14-.21,4.42-5.91,3.39-5.91-1.94,0-5.22,4-6.45,5.2-4.52,4.42-8.73,9.17-12.88,13.95-8.45,9.67-16.55,19.63-24.58,29.65-5.35,6.67-11,13.25-15.87,20.25-1.6,2.26-3.07,4.62-4.86,6.76-1.59-.16-1.46-2.72-3.67-1.08-1.06.79-2.42,1.77-3.82,1.77-2.78,0-1.15-2-.36-3.3q4.27-6.84,8.88-13.44c6.87-9.79,15.07-18.18,22.73-27.3,14.07-16.77,27.28-34.31,40.27-51.93,0-.25-1.05,3.53-.21,2.69-.14.56-2.8,6.71-2.16,6.71,2.07,0,7.93-6.54,9.13-8.39.23.62,2.06,0,2,1.85a2.8,2.8,0,0,0-.37,2.54c.74,1,2.33,1.27,1.42,2.56-.63.9-6.21,9.7-3.22,7.49,1.94-1.42,6.12-4.32,7.15-6.44,2.5,2.89,4.65,8.3,6,11.89,3.86,10.28,9.41,19.23,14.28,29,2.77-2,5.36-4.29,8-6.5,3.42-2.9,1.44-2.44,2.72-6.12.91-2.6,4.15-4.71,5.72-7,2.14-3.19,4.7-6.05,6.89-9.19-6.68-12.74-12.87-25.75-18.84-38.83A192,192,0,0,1,158,120.52c-.94-3.17-1.29-7.16-4.31-9.22-2.11-1.48-5.59-1.35-6.75-4.64,3.82,0-.8-6.68-1.23-7.46-1.48-2.74-4.65-9-8.56-5-5.89,5.49-10.93,10.31-12.66,18.47-3.13,14.75-11.18,27.21-19.64,39.51-2.84,4.14-5.83,8.17-8.63,12.33-.37.55-4.83,8.47-4.07,8.47,2.41,0,6.14-3.46,8-4.63a376,376,0,0,0-29.84,43.27c-6.07,10.17-14,19.54-21.23,28.93-4.05,5.27-8.73,10-12.87,15.14S28.48,266.87,24,271.95c3.53-6.52,9.45-13.51,9.59-21.29-1.16,0-4.88,6-5.57,6.84Q22.24,264.7,16.55,272c-3.36,4.28-6.72,8.57-10,12.94-1.74,2.34-7.34,18.71-6.5,18.71,3.64,0,8.09-8.25,10.23-10.63.62,1.65-9.77,22.22-8.24,22.22,2,0,7.46-5.12,8.76-6.74-.71,2.22-6.61,21.67-7.52,21.67,1.58,0,3.25-4.63,4.45-5.52-.91,4.32,6.63-.9,7.56-1.55a95,95,0,0,0,10-7.93c-1.16,4.58-19.74,38.39-17.88,39.8,3.44,1.68,19.14-22.86,21-25.34,5-6.58,10.86-12.56,16.34-18.73,2.33-2.63,4.11-2.25,7.65-2.47,6.17-.39,12.35-.72,18.53-1,8.46-.45,17.14-1.46,25.62-1.16,28.12,1,56.1,1.7,83.94,5.71,9.18,1.33,23.21.9,30.07,8,5.15,5.3,6.12-2.15,10.47-1.27,4.09.89,5.44,1.39,7.65-2.18a14.31,14.31,0,0,1,5.14-4.68,20,20,0,0,1,6.68-2.27c2.82-.43,2.64-1.19,4.54-3.18,2.08-2.2,2.79-4.64,5.1-5.24,4.19-1.08,12.72-2.24,11-8.63-.49-1.87.75,2.82,0,0M53,248.68a18.78,18.78,0,0,1-1.65,1.7c3.82-8.25,9.51-15.86,14.57-23.38a95.41,95.41,0,0,1,13.64-16.77c9.39-8.86,15.65-20.81,25-29.68C88.51,204.4,72.1,227.07,53,248.68c-.21.24.54-.59,0,0m139.15,27c-19.88.92-38.17-.83-57.71-4,11,.56,22.08,1.06,33.12,1.06,5.49,0,10.93-.25,16.39.61,2.15.33,7.18,2.39,8.2,2.35-.21,0,.2,0,0,0"/><path class="cls-1" d="M155,85.47c-.41,4.19-4.46,16.36-8.93,8-.57-2,1.2-4,2.46-5.29.88-.92,7.08-7.15,6.47-2.75,0,.1.08-.51,0,0"/><path d="M259.82,133.17c.26-20.94-3.52-45.29-15.16-63-6.35-9.69-13.1-19.38-20.88-28A68.42,68.42,0,0,0,208.86,30c-5.86-3.64-15.24-9.29-22.38-9.29.45,0,5.82,5.41,6.74,6.16,4.31,3.52,8.63,7,12.88,10.59,9.9,8.37,17.66,18.58,22.19,30.87A132.24,132.24,0,0,0,198.7,38.58c-7.77-5.71-16.34-11.76-25.7-14.41-15.77-4.46-32.81-9.24-49.11-5.61-8.73,2-17.22,2.74-25.46,6.12A109,109,0,0,0,72.22,40.1C62.6,47.89,56.52,56,47.47,66.9c.09-.59,4.84-9.26,3.5-9.26-.56,0-9.25,7.88-11,10.13C37.71,70.67,29.09,83,26.91,85.92c.31-.91,2.37-11.77,2.55-11.77-1.13,0-4,2.48-4.87,3.5.82-5.95,1.75-9.13,6.25-18C16.84,70.77,8,95.74,4.64,112.86c-3,15.36-2.49,30.17.68,45.48A109.36,109.36,0,0,0,16.82,190c8.33,15.7,21.08,27.93,34.26,39.62,8-10.54,15.08-21.27,22.11-32.5a71.42,71.42,0,0,1-18.07-13.2c-5.31-5.41-6.77-11.59-10.72-17.65,1.45,1.62,9,11.57,10.7,11.57.92,0-2.58-9.55-2.88-10.38a54,54,0,0,0,17,17.56c2.61,1.62,6.23,3.9,4.41-1.21s-6-9.69-8.86-14.3C56,155.56,48.37,140.62,47,124c-.91-11.61,2-27.2,7.93-37.3a170,170,0,0,1,12.88-18.5c2.12-2.76,4.15-5,6.25-7.76,1.08-1.42,7.74-8.41,7-9.83-1.28-1.23-18,11.6-19.78,12.71C67.15,52.69,79,42.54,89.77,37.18c6.91-3.44,15.07-7.76,22.71-9.23-1,.62-7.37,4-7.37,5.11a18.48,18.48,0,0,0,3.22,0c-2.93,2-5.76,4.18-8.77,6.09-.88.56-5.59,4.89-5.79,4.89,2,0,5.67-2.19,7.63-2.87,3.41-1.17,6.83-2.26,10.22-3.44-.52.47-5.27,4.84-5.22,4.89S122.73,38,125,38.31c-14.48,3.23-31.59,12.33-42.68,21.88-6.26,5.39-12.6,11.17-17.62,17.75-2.68,3.51-4.5,7.75-6.51,11.67-.67,1.31-4.62,17.73-3.79,17.73.36,0,4.6-10.67,5.07-11.76a76,76,0,0,1,6.78-12.36A74.76,74.76,0,0,1,79.55,68.62c10.77-9.35,21.88-17.1,35.69-21.51,26.6-8.48,55.54-6.59,75.81,14.73,10.4,10.93,18.88,24.14,22.63,39,4.11,16.28,6.63,36.23,1.33,52.55a206.3,206.3,0,0,1-8.19,20.6,73.58,73.58,0,0,1-9.62,16.54,121.22,121.22,0,0,1-16.89,17.3c-7.69,6.43-16.66,13.54-26.36,16.81-.58.19-.72,1.2-.12,1.4,1.51.51,4.86-.67,6.38-1a94.74,94.74,0,0,0,17.28-5.78c-3.13,2-6.38,3.73-9.3,6-1.23,1-6.37,6-7.38,6,1.41,0,5.39-1.75,6.84-2.2,2.75-.88,5-2,7.78-2.88,5.32-1.8,11.61-4.23,16.13-7.61-6.57,7-15.36,12.17-23.36,17.42-1.29.84-13,8.41-13.43,8.11,3.16,2.79,10.11-1.39,13.28-2.68A177.52,177.52,0,0,0,206,220.68c7.55-5.45,13.92-11.89,21.09-17.77-6.49,14.2-17.33,25.14-30.88,32.91-6.76,3.87-13.75,7.33-20.73,10.77-3.34,1.65-6.73,3.17-10.15,4.66-5.18,2.26-6.86,3.43-12.37,5,2.27-.15,5.56.46,8.33,0a113.06,113.06,0,0,0,14.11-3.45,116.32,116.32,0,0,0,24.84-11.09,114.54,114.54,0,0,0,39.59-37.32,126,126,0,0,0,15.3-33c3.38-11.44,4.61-28.94,4.71-38.32M197,47.32c-3.65,0-10.4-5.25-13.77-6.91-6-3-12.09-5.81-18.28-8.37-2.64-1.09-24.55-8.74-24.39-9,1.14-1.88,11.77.82,13.63,1.21a128.22,128.22,0,0,1,20.1,6.23c5.16,2,9.87,4.94,14.57,7.8,1.15.71,9.61,9.06,8.14,9.06"/><path d="M80.8,19.89c-.16-.16-19.92,15.22-21.94,16.91C53.44,41.35,47.92,45.57,43,50.66c-2.93-3.95,14.27-15.9,16.89-18.15,1.91-1.65,19-14.42,20.89-12.63"/><path d="M144.8,5.78c-.88.08-16.73-1.5-16.73-1.2,0-2.39,11.94-4.09,13.31-4.31,1.7-.28,4.47-.72,5.66,1a2.89,2.89,0,0,1-2.25,4.51h0"/><path d="M115.46,248.9c-3.69,2.84-7.56,4-12.22,4.43-5.74.58-10.73,2.46-16.6,1.71,11.71-14.68,21.69-30.48,32.15-46.07,5.19,4.58,10,11.34,8.3,18.63-.06,1.37-5.55,16.62-11.63,21.3"/><path d="M212.77,129.4c-.06,16.15-3.35,28.72-9.66,43.57a73.29,73.29,0,0,1-8.63,14.23c-2,3.19-4.81,6-7.25,8.91-1.68,2-3.23,4.22-5.31,5.84,0,0-4.23,2.87-3.83,1.26.29-.86,2.7-1.56,2.7-2.56,1.8-2,3-4.48,4.77-6.57a122,122,0,0,0,11.62-17.22c4-6.77,4.83-14,7.36-21.3A81.85,81.85,0,0,0,208.91,123,126.52,126.52,0,0,0,207,106.59c-1.1-5.41-3.68-11.76-3.68-17.28,0-2.24,3.1,3.6,3.13,3.65,1.9,4.57,4.11,9,4.62,13.95a219.72,219.72,0,0,1,1.67,22.49c0,5.77,0-3,0,0"/><path d="M33.81,388.53a28.67,28.67,0,0,1-1.06,8.09,16.9,16.9,0,0,1-3.16,6.13,13.76,13.76,0,0,1-5.27,3.89,18.72,18.72,0,0,1-7.4,1.36,19,19,0,0,1-7.22-1.24,12.67,12.67,0,0,1-5-3.61,15.44,15.44,0,0,1-3-5.89,30.45,30.45,0,0,1-1-8.09,28,28,0,0,1,1.06-7.94A16.51,16.51,0,0,1,5,375.14a14.05,14.05,0,0,1,5.29-3.86,18.73,18.73,0,0,1,7.4-1.36,18.85,18.85,0,0,1,7.12,1.23,12.89,12.89,0,0,1,5,3.59,15.26,15.26,0,0,1,3,5.83,29.19,29.19,0,0,1,1,8m-5.2.34a28.94,28.94,0,0,0-.56-5.84,13.4,13.4,0,0,0-1.85-4.69,9,9,0,0,0-3.47-3.1,11.65,11.65,0,0,0-5.37-1.12,11,11,0,0,0-5.37,1.2,10.11,10.11,0,0,0-3.52,3.2,13.3,13.3,0,0,0-1.94,4.67,26.13,26.13,0,0,0-.59,5.62,31,31,0,0,0,.54,6,13.43,13.43,0,0,0,1.83,4.73,8.75,8.75,0,0,0,3.44,3.09,11.83,11.83,0,0,0,5.41,1.1,11.2,11.2,0,0,0,5.42-1.2,9.75,9.75,0,0,0,3.54-3.24A13.71,13.71,0,0,0,28,394.56a27.36,27.36,0,0,0,.57-5.69"/><path d="M85,406.71a.89.89,0,0,1-.09.4.66.66,0,0,1-.37.29,3.23,3.23,0,0,1-.8.17,13,13,0,0,1-1.37.06,10.47,10.47,0,0,1-1.21-.06,2.69,2.69,0,0,1-.76-.19,1,1,0,0,1-.44-.36,2.27,2.27,0,0,1-.27-.57l-3.4-8.72q-.6-1.49-1.24-2.73a8.73,8.73,0,0,0-1.53-2.14,6.3,6.3,0,0,0-2.09-1.4,7.52,7.52,0,0,0-2.89-.5H65.23v15.75a.65.65,0,0,1-.13.4.84.84,0,0,1-.4.27,4,4,0,0,1-.74.17,10,10,0,0,1-2.37,0,4.37,4.37,0,0,1-.76-.17.77.77,0,0,1-.4-.27.71.71,0,0,1-.11-.4V372.47a1.84,1.84,0,0,1,.59-1.56,2,2,0,0,1,1.24-.44H70q1.4,0,2.33.07t1.67.16a14.15,14.15,0,0,1,3.79,1.17,9,9,0,0,1,2.76,2,8.21,8.21,0,0,1,1.67,2.82,10.49,10.49,0,0,1,.56,3.5,10.3,10.3,0,0,1-.5,3.33,8,8,0,0,1-1.44,2.6,9.53,9.53,0,0,1-2.26,2,14.44,14.44,0,0,1-2.94,1.4,7,7,0,0,1,1.66,1A8.58,8.58,0,0,1,78.68,392a13.76,13.76,0,0,1,1.21,2q.57,1.11,1.14,2.52l3.31,8.14q.4,1,.52,1.44a2.64,2.64,0,0,1,.11.64m-7.4-26a6.62,6.62,0,0,0-1-3.67,5.5,5.5,0,0,0-3.26-2.16,9.38,9.38,0,0,0-1.61-.29q-.9-.09-2.36-.09H65.23V387H70a10.68,10.68,0,0,0,3.36-.47,6.62,6.62,0,0,0,2.36-1.32,5.1,5.1,0,0,0,1.39-2,6.83,6.83,0,0,0,.44-2.49"/><path d="M115.74,406.71a.7.7,0,0,1-.11.4.77.77,0,0,1-.4.27,4.3,4.3,0,0,1-.76.17,9.77,9.77,0,0,1-2.36,0,4.28,4.28,0,0,1-.77-.17.76.76,0,0,1-.4-.27.69.69,0,0,1-.11-.4v-35.5a.64.64,0,0,1,.13-.4.86.86,0,0,1,.43-.27,4.79,4.79,0,0,1,.77-.17,7.77,7.77,0,0,1,1.13-.07,8.26,8.26,0,0,1,1.19.07,4.38,4.38,0,0,1,.76.17.77.77,0,0,1,.4.27.71.71,0,0,1,.11.4Z"/><path d="M172.08,375.5a7.21,7.21,0,0,1-.06,1,2.85,2.85,0,0,1-.17.69.83.83,0,0,1-.29.39.65.65,0,0,1-.37.12,2.59,2.59,0,0,1-1.14-.54,18.24,18.24,0,0,0-2.14-1.2,20.18,20.18,0,0,0-3.21-1.2,16.06,16.06,0,0,0-4.44-.54,13,13,0,0,0-5.49,1.11,11.81,11.81,0,0,0-4.12,3.09,13.78,13.78,0,0,0-2.59,4.69,20.12,20.12,0,0,0,.09,12.17,13.37,13.37,0,0,0,2.73,4.63,11.34,11.34,0,0,0,4.16,2.86,14.06,14.06,0,0,0,5.3,1,15.09,15.09,0,0,0,3.47-.41,13,13,0,0,0,3.27-1.24V391.25h-8.57a.78.78,0,0,1-.73-.49,3.53,3.53,0,0,1-.24-1.51,6.33,6.33,0,0,1,.06-.93,1.94,1.94,0,0,1,.19-.63,1,1,0,0,1,.3-.36.76.76,0,0,1,.43-.11h11.75a1.84,1.84,0,0,1,.63.11,1.79,1.79,0,0,1,.57.34,1.51,1.51,0,0,1,.4.63,2.76,2.76,0,0,1,.14.91v14.09a3,3,0,0,1-.26,1.29,2.24,2.24,0,0,1-1.09,1,21.57,21.57,0,0,1-2.14.9,24.63,24.63,0,0,1-2.71.83,23.9,23.9,0,0,1-5.66.69,20.73,20.73,0,0,1-7.66-1.33,15.57,15.57,0,0,1-5.7-3.79,16.54,16.54,0,0,1-3.56-5.89,24.54,24.54,0,0,1,.1-15.63,17.42,17.42,0,0,1,3.74-6.09,16.71,16.71,0,0,1,5.8-3.9,19.64,19.64,0,0,1,7.5-1.39,20.29,20.29,0,0,1,4,.37,25.51,25.51,0,0,1,3.3.87,13.44,13.44,0,0,1,2.43,1.09,7.51,7.51,0,0,1,1.36,1,2,2,0,0,1,.51.86,5.31,5.31,0,0,1,.14,1.4"/><path d="M204.87,406.71a.71.71,0,0,1-.11.4.78.78,0,0,1-.4.27,4.3,4.3,0,0,1-.76.17,9.78,9.78,0,0,1-2.36,0,4.29,4.29,0,0,1-.77-.17.75.75,0,0,1-.4-.27.69.69,0,0,1-.11-.4v-35.5a.65.65,0,0,1,.13-.4.85.85,0,0,1,.43-.27,4.81,4.81,0,0,1,.77-.17,7.77,7.77,0,0,1,1.13-.07,8.26,8.26,0,0,1,1.19.07,4.38,4.38,0,0,1,.76.17.78.78,0,0,1,.4.27.71.71,0,0,1,.11.4Z"/><path d="M261.38,405.42a2.24,2.24,0,0,1-.19,1,1.93,1.93,0,0,1-.5.66,2,2,0,0,1-.7.37,2.68,2.68,0,0,1-.77.12H257.6a5.09,5.09,0,0,1-1.34-.16,3,3,0,0,1-1.09-.57,5.72,5.72,0,0,1-1-1.13,14.63,14.63,0,0,1-1.1-1.83l-11.28-21q-.88-1.63-1.78-3.42t-1.67-3.47h-.06q.05,2.06.09,4.2t0,4.26v22.32a.7.7,0,0,1-.12.39.75.75,0,0,1-.41.29,4.13,4.13,0,0,1-.75.17,10,10,0,0,1-2.38,0,3.75,3.75,0,0,1-.74-.17.75.75,0,0,1-.39-.29.69.69,0,0,1-.12-.39V372.58a1.91,1.91,0,0,1,.65-1.63,2.31,2.31,0,0,1,1.41-.49h2.42a6,6,0,0,1,1.43.14,3,3,0,0,1,1,.47,4.09,4.09,0,0,1,.88.92,12.28,12.28,0,0,1,.9,1.47l8.67,16.23q.8,1.49,1.55,2.9c.5.94,1,1.87,1.44,2.79l1.37,2.7q.68,1.33,1.34,2.67h0q-.06-2.26-.07-4.7t0-4.7V371.3a.63.63,0,0,1,.12-.37,1,1,0,0,1,.41-.3,2.64,2.64,0,0,1,.75-.18,10.47,10.47,0,0,1,1.22-.06,9.87,9.87,0,0,1,1.14.06,2.47,2.47,0,0,1,.76.18,1,1,0,0,1,.39.3.65.65,0,0,1,.12.37Z"/><path d="M20.57,436.3a2.07,2.07,0,0,1,.14.58.4.4,0,0,1-.12.33.8.8,0,0,1-.43.15c-.2,0-.47,0-.81,0l-.81,0a1.87,1.87,0,0,1-.46-.08.48.48,0,0,1-.23-.16,1.25,1.25,0,0,1-.14-.25l-1.81-5.14H7.11l-1.73,5.08a.86.86,0,0,1-.13.25.65.65,0,0,1-.24.18,1.55,1.55,0,0,1-.44.11,7.22,7.22,0,0,1-.74,0,6,6,0,0,1-.78,0,.77.77,0,0,1-.42-.15.41.41,0,0,1-.11-.33,2,2,0,0,1,.14-.58l7.09-19.63a.83.83,0,0,1,.17-.29.71.71,0,0,1,.31-.18,2.35,2.35,0,0,1,.52-.09c.21,0,.48,0,.81,0s.64,0,.87,0a2.55,2.55,0,0,1,.55.09.73.73,0,0,1,.33.19.89.89,0,0,1,.18.3ZM11.47,419h0L7.82,429.5h7.35Z"/><path d="M51.34,434.3c0,.17,0,.33,0,.46a2,2,0,0,1-.06.34,1.13,1.13,0,0,1-.11.26,1.38,1.38,0,0,1-.23.28,4.66,4.66,0,0,1-.69.5,8.08,8.08,0,0,1-1.3.65,10.82,10.82,0,0,1-1.78.54,10.27,10.27,0,0,1-2.2.22,9.63,9.63,0,0,1-3.71-.69,7.52,7.52,0,0,1-2.83-2,9.23,9.23,0,0,1-1.8-3.31,16.6,16.6,0,0,1,0-9.22,10.17,10.17,0,0,1,1.9-3.49,8.13,8.13,0,0,1,2.93-2.18,9.72,9.72,0,0,1,5.56-.58,11.72,11.72,0,0,1,1.6.43,7.37,7.37,0,0,1,1.31.6,4.45,4.45,0,0,1,.79.56,2,2,0,0,1,.29.33,1.13,1.13,0,0,1,.11.27,2.58,2.58,0,0,1,.07.37,4.6,4.6,0,0,1,0,.51,3.89,3.89,0,0,1,0,.56,1.56,1.56,0,0,1-.1.38.58.58,0,0,1-.16.23.33.33,0,0,1-.22.07,1.22,1.22,0,0,1-.64-.32,10.51,10.51,0,0,0-1.06-.7,8.65,8.65,0,0,0-1.58-.7,6.9,6.9,0,0,0-2.22-.32,5.79,5.79,0,0,0-2.57.56,5.45,5.45,0,0,0-2,1.66,8.18,8.18,0,0,0-1.27,2.67,14.66,14.66,0,0,0,0,7.15A7.36,7.36,0,0,0,40.66,433a5.21,5.21,0,0,0,2,1.57,6.47,6.47,0,0,0,2.68.53,7.08,7.08,0,0,0,2.21-.31,8.52,8.52,0,0,0,1.61-.69,12.46,12.46,0,0,0,1.09-.69,1.31,1.31,0,0,1,.67-.31.38.38,0,0,1,.2,0,.34.34,0,0,1,.13.19,1.74,1.74,0,0,1,.07.38c0,.16,0,.37,0,.62"/><path d="M85.85,426.48a16.42,16.42,0,0,1-.6,4.62,9.67,9.67,0,0,1-1.81,3.5,7.87,7.87,0,0,1-3,2.22,10.71,10.71,0,0,1-4.23.78,10.87,10.87,0,0,1-4.12-.71,7.24,7.24,0,0,1-2.87-2.07,8.82,8.82,0,0,1-1.69-3.36,17.4,17.4,0,0,1-.55-4.62,15.92,15.92,0,0,1,.6-4.54,9.44,9.44,0,0,1,1.81-3.47,8,8,0,0,1,3-2.21,12,12,0,0,1,8.3-.07,7.37,7.37,0,0,1,2.88,2,8.72,8.72,0,0,1,1.72,3.33,16.71,16.71,0,0,1,.56,4.55m-3,.2a16.57,16.57,0,0,0-.32-3.34,7.69,7.69,0,0,0-1.06-2.68,5.13,5.13,0,0,0-2-1.77,6.67,6.67,0,0,0-3.07-.64,6.26,6.26,0,0,0-3.07.69,5.77,5.77,0,0,0-2,1.83,7.62,7.62,0,0,0-1.11,2.67,15,15,0,0,0-.33,3.21,17.76,17.76,0,0,0,.31,3.43,7.67,7.67,0,0,0,1,2.7,5,5,0,0,0,2,1.76,6.76,6.76,0,0,0,3.09.63,6.4,6.4,0,0,0,3.1-.69,5.56,5.56,0,0,0,2-1.85,7.84,7.84,0,0,0,1.09-2.7,15.55,15.55,0,0,0,.33-3.25"/><path d="M119.56,429.49a9.78,9.78,0,0,1-.56,3.44,7,7,0,0,1-1.61,2.56,6.81,6.81,0,0,1-2.55,1.58,10.09,10.09,0,0,1-3.41.54,9.52,9.52,0,0,1-3.18-.51,6.73,6.73,0,0,1-2.47-1.49,6.52,6.52,0,0,1-1.58-2.47,9.74,9.74,0,0,1-.56-3.43V416.58a.4.4,0,0,1,.07-.23.42.42,0,0,1,.23-.16,2.49,2.49,0,0,1,.42-.1,4.74,4.74,0,0,1,.69,0,4.82,4.82,0,0,1,.67,0,2.29,2.29,0,0,1,.43.1.43.43,0,0,1,.22.16.39.39,0,0,1,.07.23v12.77a8.2,8.2,0,0,0,.36,2.56,4.82,4.82,0,0,0,1,1.82,4.31,4.31,0,0,0,1.63,1.09,5.94,5.94,0,0,0,2.15.37,6.15,6.15,0,0,0,2.18-.36,4.13,4.13,0,0,0,1.62-1.08,4.8,4.8,0,0,0,1-1.78,7.93,7.93,0,0,0,.35-2.48V416.58a.4.4,0,0,1,.07-.23.43.43,0,0,1,.23-.16,2.49,2.49,0,0,1,.43-.1,4.78,4.78,0,0,1,.68,0,4.64,4.64,0,0,1,.66,0,2.27,2.27,0,0,1,.42.1.48.48,0,0,1,.23.16.37.37,0,0,1,.07.23Z"/><path d="M149.86,431.37a6.12,6.12,0,0,1-.55,2.65,5.69,5.69,0,0,1-1.52,2,6.57,6.57,0,0,1-2.29,1.22,9.53,9.53,0,0,1-2.83.41,10.17,10.17,0,0,1-2-.18,10.81,10.81,0,0,1-1.62-.44,7.74,7.74,0,0,1-1.19-.54,3.11,3.11,0,0,1-.67-.47,1.21,1.21,0,0,1-.28-.5,3,3,0,0,1-.09-.81,4.41,4.41,0,0,1,0-.6,1.5,1.5,0,0,1,.1-.38.42.42,0,0,1,.16-.2.45.45,0,0,1,.23-.06,1.34,1.34,0,0,1,.64.28,10,10,0,0,0,1.07.6,10.25,10.25,0,0,0,1.58.61,7.17,7.17,0,0,0,2.13.29,5.43,5.43,0,0,0,1.67-.25,4,4,0,0,0,1.31-.69,3,3,0,0,0,.84-1.1,3.59,3.59,0,0,0,.29-1.49,2.79,2.79,0,0,0-.41-1.54,4.09,4.09,0,0,0-1.08-1.12,9.51,9.51,0,0,0-1.53-.88l-1.75-.82a19.24,19.24,0,0,1-1.75-.92,7.43,7.43,0,0,1-1.52-1.19,5.52,5.52,0,0,1-1.09-1.61,5.35,5.35,0,0,1-.42-2.21,5.54,5.54,0,0,1,.48-2.36,4.86,4.86,0,0,1,1.34-1.74,6,6,0,0,1,2-1.07,8.59,8.59,0,0,1,2.56-.37,8.28,8.28,0,0,1,1.41.12,9.89,9.89,0,0,1,1.34.33,7.7,7.7,0,0,1,1.12.46,3,3,0,0,1,.64.41,1.29,1.29,0,0,1,.2.25,1,1,0,0,1,.08.23,2.37,2.37,0,0,1,0,.33c0,.13,0,.3,0,.51a4.85,4.85,0,0,1,0,.52,2,2,0,0,1-.07.38.48.48,0,0,1-.14.23.32.32,0,0,1-.2.07,1.3,1.3,0,0,1-.56-.23c-.25-.15-.57-.32-.94-.51a8.43,8.43,0,0,0-1.32-.52,5.78,5.78,0,0,0-1.71-.24,4.54,4.54,0,0,0-1.54.24,3.17,3.17,0,0,0-1.08.63,2.49,2.49,0,0,0-.64.93,3.13,3.13,0,0,0-.21,1.14,2.76,2.76,0,0,0,.41,1.52,4.21,4.21,0,0,0,1.09,1.13,9.5,9.5,0,0,0,1.54.9l1.76.83q.9.42,1.76.91a7.4,7.4,0,0,1,1.54,1.18,5.39,5.39,0,0,1,1.09,1.6,5.27,5.27,0,0,1,.42,2.18"/><path d="M180.27,417.37a4.05,4.05,0,0,1,0,.54,1.12,1.12,0,0,1-.11.37.52.52,0,0,1-.18.21.46.46,0,0,1-.24.06h-5.94v18.32a.41.41,0,0,1-.07.23.44.44,0,0,1-.23.15,2.51,2.51,0,0,1-.43.1,5.55,5.55,0,0,1-1.35,0,2.47,2.47,0,0,1-.44-.1.42.42,0,0,1-.23-.15.39.39,0,0,1-.07-.23V418.54H165a.44.44,0,0,1-.24-.06.45.45,0,0,1-.17-.21,1.42,1.42,0,0,1-.11-.37,3.08,3.08,0,0,1,0-.54,3.24,3.24,0,0,1,0-.55,1.6,1.6,0,0,1,.11-.38.45.45,0,0,1,.17-.21.44.44,0,0,1,.24-.07h14.7a.46.46,0,0,1,.24.07.52.52,0,0,1,.18.21,1.25,1.25,0,0,1,.11.38,4.27,4.27,0,0,1,0,.55"/><path d="M199.51,436.87a.4.4,0,0,1-.06.23.44.44,0,0,1-.23.16,2.46,2.46,0,0,1-.43.1,5.55,5.55,0,0,1-1.35,0,2.46,2.46,0,0,1-.44-.1.44.44,0,0,1-.23-.16.41.41,0,0,1-.06-.23V416.59a.37.37,0,0,1,.07-.23.5.5,0,0,1,.24-.15,2.75,2.75,0,0,1,.44-.1,4.49,4.49,0,0,1,.65,0,4.76,4.76,0,0,1,.68,0,2.46,2.46,0,0,1,.43.1.45.45,0,0,1,.23.15.41.41,0,0,1,.06.23Z"/><path d="M232.62,434.3c0,.17,0,.33,0,.46a2.12,2.12,0,0,1-.06.34,1.22,1.22,0,0,1-.11.26,1.49,1.49,0,0,1-.23.28,4.74,4.74,0,0,1-.69.5,8.16,8.16,0,0,1-1.3.65,10.86,10.86,0,0,1-1.78.54,10.28,10.28,0,0,1-2.2.22,9.63,9.63,0,0,1-3.71-.69,7.51,7.51,0,0,1-2.83-2,9.2,9.2,0,0,1-1.8-3.31,16.6,16.6,0,0,1,0-9.22,10.16,10.16,0,0,1,1.9-3.49,8.13,8.13,0,0,1,2.93-2.18,9.72,9.72,0,0,1,5.56-.58,11.77,11.77,0,0,1,1.6.43,7.45,7.45,0,0,1,1.31.6,4.56,4.56,0,0,1,.79.56,1.93,1.93,0,0,1,.28.33,1.22,1.22,0,0,1,.11.27,2.71,2.71,0,0,1,.07.37,4.72,4.72,0,0,1,0,.51,4.2,4.2,0,0,1,0,.56,1.54,1.54,0,0,1-.1.38.57.57,0,0,1-.16.23.34.34,0,0,1-.22.07,1.21,1.21,0,0,1-.64-.32,10.42,10.42,0,0,0-1.06-.7,8.64,8.64,0,0,0-1.58-.7,6.89,6.89,0,0,0-2.23-.32,5.79,5.79,0,0,0-2.57.56,5.44,5.44,0,0,0-2,1.66,8.16,8.16,0,0,0-1.27,2.67,14.64,14.64,0,0,0,0,7.15,7.38,7.38,0,0,0,1.25,2.58,5.2,5.2,0,0,0,2,1.57,6.47,6.47,0,0,0,2.68.53,7.08,7.08,0,0,0,2.21-.31,8.47,8.47,0,0,0,1.61-.69,12.61,12.61,0,0,0,1.09-.69,1.31,1.31,0,0,1,.67-.31.37.37,0,0,1,.2,0,.34.34,0,0,1,.13.19,1.81,1.81,0,0,1,.08.38q0,.25,0,.62"/><path d="M261.07,431.37a6.15,6.15,0,0,1-.55,2.65,5.7,5.7,0,0,1-1.52,2,6.6,6.6,0,0,1-2.29,1.22,9.53,9.53,0,0,1-2.83.41,10.19,10.19,0,0,1-2-.18,10.87,10.87,0,0,1-1.62-.44,7.77,7.77,0,0,1-1.19-.54,3.07,3.07,0,0,1-.67-.47,1.18,1.18,0,0,1-.28-.5,2.9,2.9,0,0,1-.09-.81,4.23,4.23,0,0,1,0-.6,1.33,1.33,0,0,1,.1-.38.42.42,0,0,1,.16-.2.45.45,0,0,1,.23-.06,1.35,1.35,0,0,1,.65.28,9.79,9.79,0,0,0,1.07.6,10.2,10.2,0,0,0,1.58.61,7.18,7.18,0,0,0,2.13.29,5.44,5.44,0,0,0,1.67-.25,3.94,3.94,0,0,0,1.31-.69,3,3,0,0,0,.84-1.1,3.57,3.57,0,0,0,.29-1.49,2.79,2.79,0,0,0-.41-1.54,4.18,4.18,0,0,0-1.08-1.12,9.51,9.51,0,0,0-1.53-.88l-1.75-.82a19.11,19.11,0,0,1-1.75-.92,7.35,7.35,0,0,1-1.52-1.19A5.54,5.54,0,0,1,249,423.6a5.37,5.37,0,0,1-.42-2.21,5.51,5.51,0,0,1,.48-2.36,4.86,4.86,0,0,1,1.34-1.74,6,6,0,0,1,2-1.07,8.57,8.57,0,0,1,2.56-.37,8.26,8.26,0,0,1,1.41.12,10,10,0,0,1,1.34.33,7.59,7.59,0,0,1,1.12.46,3,3,0,0,1,.65.41,1.4,1.4,0,0,1,.21.25,1,1,0,0,1,.08.23,2.7,2.7,0,0,1,0,.33q0,.2,0,.51a4.85,4.85,0,0,1,0,.52,2.06,2.06,0,0,1-.07.38.48.48,0,0,1-.14.23.32.32,0,0,1-.2.07,1.31,1.31,0,0,1-.56-.23c-.26-.15-.57-.32-.94-.51a8.45,8.45,0,0,0-1.31-.52,5.78,5.78,0,0,0-1.71-.24,4.54,4.54,0,0,0-1.54.24,3.15,3.15,0,0,0-1.08.63,2.49,2.49,0,0,0-.64.93,3.07,3.07,0,0,0-.21,1.14,2.74,2.74,0,0,0,.41,1.52,4.16,4.16,0,0,0,1.09,1.13,9.5,9.5,0,0,0,1.54.9l1.76.83q.9.42,1.76.91a7.47,7.47,0,0,1,1.54,1.18,5.37,5.37,0,0,1,1.09,1.6,5.25,5.25,0,0,1,.42,2.18"/><path d="M266.21,415.62a2.75,2.75,0,1,0,2.76,2.76,2.75,2.75,0,0,0-2.76-2.76m1.49,4.27-.18-.29a3.75,3.75,0,0,1-.24-.73.93.93,0,0,0-.21-.39.88.88,0,0,0,.37-.73c0-.29-.13-1-1.34-1a6,6,0,0,0-.84.06l-.19,0V420h.78v-1.17h.28c.25,0,.33.09.4.34a2.84,2.84,0,0,0,.23.73l.07.11h.81a2.36,2.36,0,1,1,.06-.06m-1.05-2.1c0,.24-.29.27-.45.27h-.34v-.55h.26c.53,0,.53.2.53.28"/></g></g></svg>