<?xml version="1.0" encoding="utf-8"?>
<!-- Generator: Adobe Illustrator 21.1.0, SVG Export Plug-In . SVG Version: 6.00 Build 0)  -->
<svg version="1.1" id="Layer_1" xmlns="http://www.w3.org/2000/svg" xmlns:xlink="http://www.w3.org/1999/xlink" x="0px" y="0px"
	 viewBox="0 0 130.8 130.8" style="enable-background:new 0 0 130.8 130.8;" xml:space="preserve">
<style type="text/css">
	.st0{fill:none;stroke:#40154E;stroke-width:3;stroke-linecap:round;stroke-linejoin:round;}
	.st1{fill:none;stroke:#40154E;stroke-width:3;stroke-miterlimit:10;}
	.st2{fill:#40154E;stroke:#40154E;stroke-miterlimit:10;}
</style>
<title>PurpleShip</title>
<g id="Layer_2">
	<g id="Layer_1-2">
		<g id="Layer_2-2">
			<g id="Icon_Set">
				<path class="st0" d="M80.5,104.2c0.5-4.2-2-8.2-6-9.6l0,0l6.5-16.1l6.4,7.1c3.5,3.9,4.5,9.5,2.6,14.4l-6,12.4
					c-2.3,4.7-0.4,10.5,4.3,12.8c1.2,0.6,2.6,0.9,4,1H118c5.8,0,10.7-4.4,11.2-10.2c0.4-5.3-3.1-10.2-8.2-11.5
					c0-0.3,0.1-0.6,0.1-0.9c0-3.7-3-6.8-6.7-6.8c-0.6,0-1.2,0.1-1.8,0.2V97c0-3.7-3-6.6-6.7-6.6c-1.9,0-3.8,0.8-5,2.3"/>
				<path class="st1" d="M78.3,22.6c0,0-4.7,2-13,2s-13-2-13-2"/>
				<circle class="st1" cx="65.4" cy="48.3" r="8.3"/>
				<path class="st0" d="M59.8,100c-0.1,6.4,1.5,14.9,5.6,26.1c4.1-11.2,5.7-19.7,5.6-26.1"/>
				<path class="st2" d="M65.8,44.2c1.2,1.3,1,3.3-0.3,4.5c-1.2,1-3,1-4.2,0c0.2,2.3,2.2,4,4.5,3.8s4-2.2,3.8-4.5
					C69.4,45.9,67.8,44.4,65.8,44.2z"/>
				<path class="st0" d="M50.3,104.2c-0.5-4.2,2-8.2,6-9.6l0,0l-6.5-16.1l-6.4,7.1c-3.5,3.9-4.5,9.5-2.6,14.4l6,12.4
					c2.3,4.7,0.4,10.5-4.3,12.8c-1.2,0.6-2.6,0.9-4,1H12.9C7,126.3,2.1,121.8,1.5,116c-0.4-5.3,3-10.2,8.2-11.6
					c0-0.3-0.1-0.6-0.1-0.9c0-3.7,3-6.8,6.7-6.8c0.6,0,1.2,0.1,1.8,0.2v0c0-3.7,3-6.6,6.7-6.6c1.9,0,3.8,0.8,5,2.3"/>
				<path class="st1" d="M49.8,78.5C32.1,35.3,65.4,5,65.4,5s33.3,30.2,15.6,73.5"/>
				<circle class="st1" cx="65.4" cy="48.3" r="8.3"/>
				<path class="st0" d="M71,100c0.1,6.4-1.5,14.9-5.6,26.1c-4.1-11.2-5.7-19.7-5.6-26.1"/>
			</g>
		</g>
	</g>
</g>
</svg>
