<?xml version="1.0" encoding="utf-8"?>
<!-- Generator: Adobe Illustrator 21.1.0, SVG Export Plug-In . SVG Version: 6.00 Build 0)  -->
<svg version="1.1" id="Layer_1" xmlns="http://www.w3.org/2000/svg" xmlns:xlink="http://www.w3.org/1999/xlink" x="0px" y="0px"
	 viewBox="0 0 131.3 131.3" style="enable-background:new 0 0 131.3 131.3;" xml:space="preserve">
<style type="text/css">
	.st0{fill:#40154E;stroke:#40154E;stroke-miterlimit:10;}
	.st1{fill:none;stroke:#40154E;stroke-width:3;stroke-miterlimit:10;}
</style>
<title>PurpleCash</title>
<g id="Layer_2">
	<g id="Layer_1-2">
		<g id="Layer_2-2">
			<g id="Icon_Set">
				<path class="st0" d="M49.7,101.6v-3.8h-0.5c-0.9-0.1-1.9-0.2-2.8-0.5c-0.7-0.2-1.3-0.4-2-0.6v-3.4c0.9,0.3,1.8,0.6,2.8,0.8
					c1.3,0.3,2.6,0.5,3.9,0.5c1.8,0.1,3.5-0.5,4.9-1.7c1.2-1.1,1.9-2.7,1.9-4.3c0-1-0.2-1.9-0.5-2.8c-0.3-0.8-0.9-1.5-1.5-2.1
					c-1.3-0.9-2.6-1.6-4-2.2l-2.8-1.3c-1.9-0.8-3.6-2.1-4.8-3.8c-0.9-1.6-1.4-3.4-1.4-5.3c0-2,0.7-4,2-5.5c1.2-1.4,2.8-2.4,4.6-2.8
					l0.3-0.1v-3.9h3.6v3.8h0.5c1.6,0,3.2,0.4,4.7,1.2v3.3c-0.7-0.4-1.5-0.7-2.3-0.9c-1.2-0.4-2.5-0.7-3.8-0.7
					c-1.6-0.1-3.1,0.5-4.2,1.6c-1,1-1.6,2.5-1.6,3.9c0,0.9,0.2,1.8,0.5,2.7c0.4,0.8,0.9,1.6,1.6,2.1c1.2,0.8,2.4,1.6,3.8,2.1l2.2,1
					c2.1,0.9,4,2.3,5.3,4.2c1.2,1.9,1.7,4,1.7,6.2c0,2-0.8,4-2.2,5.4c-1.5,1.6-3.5,2.6-5.7,2.9l-0.4,0.1v4L49.7,101.6z"/>
				<path class="st1" d="M86.6,52.2L72.4,33H32L11.7,60.3c-6.6,8.7-10.1,19.2-10.2,30c0,16.8,8.8,36.9,50.7,36.9
					c16.8,0,23.7-0.3,23.7-0.3"/>
				<path class="st1" d="M30.1,24.9h44.1c1.3,0,2.4,1.1,2.4,2.4v3.3c0,1.3-1.1,2.4-2.4,2.4H30.1c-1.3,0-2.4-1.1-2.4-2.4v-3.3
					C27.7,26,28.8,24.9,30.1,24.9z"/>
				<path class="st1" d="M66.2,6.9l-3.9,3.9l-1.7-1.7c-4.5-4.5-11.8-4.5-16.3,0l-1.7,1.7l-3.9-3.9c-3.7-3.6-9.6-3.6-13.2,0l-4.9,4.9
					L34,24.9h36.7l13.6-13.2l-4.9-4.9C75.8,3.2,69.9,3.2,66.2,6.9L66.2,6.9z"/>
				<rect x="75.8" y="52.2" class="st1" width="54" height="74.6"/>
				<rect x="83.4" y="59.8" class="st1" width="38.8" height="9.6"/>
				<rect x="83.4" y="81" class="st1" width="38.8" height="37.8"/>
				<line class="st1" x1="83.4" y1="93.6" x2="122.2" y2="93.6"/>
				<line class="st1" x1="83.4" y1="106.2" x2="122.2" y2="106.2"/>
				<line class="st1" x1="83.4" y1="118.8" x2="122.2" y2="118.8"/>
				<line class="st1" x1="83.4" y1="81" x2="83.4" y2="93.6"/>
				<line class="st1" x1="109.3" y1="81" x2="109.3" y2="118.8"/>
				<line class="st1" x1="122.2" y1="81" x2="122.2" y2="93.6"/>
				<rect x="83.4" y="81" class="st1" width="25.9" height="12.6"/>
				<line class="st1" x1="96.4" y1="93.6" x2="96.4" y2="118.8"/>
			</g>
		</g>
	</g>
</g>
</svg>
