<?xml version="1.0" encoding="utf-8"?>
<!-- Generator: Adobe Illustrator 21.1.0, SVG Export Plug-In . SVG Version: 6.00 Build 0)  -->
<svg version="1.1" id="Layer_1" xmlns="http://www.w3.org/2000/svg" xmlns:xlink="http://www.w3.org/1999/xlink" x="0px" y="0px"
	 viewBox="0 0 130.1 130.1" style="enable-background:new 0 0 130.1 130.1;" xml:space="preserve">
<style type="text/css">
	.st0{fill:none;stroke:#40154E;stroke-width:3;stroke-miterlimit:10;}
	.st1{fill:#40154E;stroke:#40154E;stroke-miterlimit:10;}
	.st2{fill:#83389B;stroke:#40154E;stroke-width:3;stroke-miterlimit:10;}
	.st3{fill:none;stroke:#40154E;stroke-width:3;stroke-linecap:round;stroke-miterlimit:10;}
</style>
<title>Asset 4</title>
<g id="Layer_2">
	<g id="Icon_Set">
		<path class="st0" d="M96.4,67.7c-15,10-26.1-6.5-26.1-6.5c-5.3-7.2-9.1,0.2-9.1,0.2c-2.8,6.8-6.8,6.2-9.2,5
			c-1.2-0.6-1.8-2-1.4-3.3l1.8-6.1c0.8-2.7,2.7-4.9,5.3-6l6.8-3c2.4-1.1,4.6-0.8,7.6-0.2L89.7,52L96.4,67.7z"/>
		<path class="st0" d="M100.1,76.4l-11.6,3.7L81.3,70c0,0,8.5,3.5,15.1-2.2L100.1,76.4z"/>
		<polygon class="st1" points="0,28.3 0,81 10.3,85 28.7,40 		"/>
		<polyline class="st2" points="27.2,43.6 40.4,49.2 28.7,76.4 15.9,71.4 		"/>
		<polygon class="st1" points="130.1,31.2 130.1,83.8 119.8,87.9 101.4,42.8 		"/>
		<polyline class="st2" points="102.8,46.5 89.7,52 101.4,79.3 114.2,74.2 		"/>
		<path class="st3" d="M80.4,69.9l10,12.5c0.8,1,1,2.2,0.6,3.4l0,0c-0.7,2.1-3.1,3.2-5.2,2.5c-0.6-0.2-1.2-0.6-1.6-1.1L70.5,72.7"/>
		<path class="st3" d="M64.4,79.6L76,91.6c2.3,2.4,6.1,2.5,8.5,0.2c0.7-0.7,1.2-1.5,1.5-2.4l0.1-0.2"/>
		<path class="st3" d="M58.9,85.2l9.6,10.6c1,1.2,2.5,2,4.1,2.1c1.8,0.1,4.1-0.6,6-3.7"/>
		<path class="st0" d="M59.5,50.3c-8.6-2-19.1-1.1-19.1-1.1"/>
		<path class="st0" d="M30.8,71.6c9.8,7,19,14.8,27.6,23.2l4.5,4.3c1.5,1.5,4,1.5,5.5-0.1c0.5-0.6,0.9-1.2,1-2V97"/>
		<path class="st0" d="M38.4,77.3l-1.2,1.3c-1.1,1.2-1,3.1,0.2,4.2c0,0,0.1,0.1,0.1,0.1l0,0c1.4,1.1,3.5,1,4.7-0.4l1.1-1.3"/>
		<path class="st0" d="M49.4,86.5l-2.6,2.8c-1.4,1.5-3.7,1.6-5.2,0.3l0,0c-1.6-1.4-1.7-3.7-0.4-5.3l2.4-2.8"/>
		<path class="st0" d="M49.4,86.5l-1.7,1.8c-1.4,1.5-1.3,3.9,0.2,5.3l0,0c1.5,1.4,3.9,1.3,5.3-0.2l1.7-1.8"/>
		<path class="st0" d="M60.1,96.5l-0.9,0.9c-1.4,1.4-3.6,1.4-5,0.1c0,0,0,0,0,0l0,0c-1.4-1.3-1.5-3.6-0.1-5c0,0,0,0,0,0l0.7-0.7"/>
	</g>
</g>
</svg>
