<svg xmlns="http://www.w3.org/2000/svg" viewBox="0 0 685.2 339.96"><defs><style>.cls-1{fill:#fff;}</style></defs><title>ValetWhite</title><g id="Layer_2" data-name="Layer 2"><g id="Layer_1-2" data-name="Layer 1"><path class="cls-1" d="M399.11,0c0,.59.14,1.18.14,1.77q0,168,0,335.94v1.8H354V0Z"/><path class="cls-1" d="M685.2,186c-.59,0-1.19.06-1.78.06H650.18V339.47H605c0-.34-.11-.71-.13-1.09s0-1,0-1.48q0-74.26,0-148.52c0-.73,0-1.45,0-2.34H585.61V143.75h19.22V72h45.31v71.62c1.49.13,2.82.22,4.13.37a35.16,35.16,0,0,1,30.52,29c.16,1,.27,1.92.4,2.89Z"/><path class="cls-1" d="M302.25,314.36c-3.87,3.09-7.56,6.24-11.47,9.1a84.91,84.91,0,0,1-30.67,14.44,79.61,79.61,0,0,1-20,2,92.38,92.38,0,0,1-30.09-5.4,83.25,83.25,0,0,1-28.82-17.84c-14.8-13.94-24.21-31-28.94-50.69a127,127,0,0,1-3.34-27.79,128.84,128.84,0,0,1,2.74-29.48,99.87,99.87,0,0,1,25.44-48.37A85.1,85.1,0,0,1,210.78,138a87.21,87.21,0,0,1,22.89-4.69,89.79,89.79,0,0,1,15.42.1,76.27,76.27,0,0,1,24.78,6.78,93,93,0,0,1,25.31,17.69c1,.92,1.83,1.94,2.77,3,.65-.58.46-1.15.46-1.65q0-9.43,0-18.86v-1.83h45.46c0,.44.07.82.09,1.2,0,.2,0,.4,0,.59q0,48.49.05,97,0,26.29.05,52.58,0,23.91.1,47.82c0,.64,0,1.27,0,2H302.47c0-.56-.06-1.13-.06-1.71q0-11.14,0-22.28C302.4,315.24,302.6,314.67,302.25,314.36Zm3-77.25A87.83,87.83,0,0,0,304,222.28a62.85,62.85,0,0,0-12.21-28.33,50.38,50.38,0,0,0-18.23-14.89c-10.14-4.84-20.86-6-31.87-4.57A48.17,48.17,0,0,0,213.12,189,60.87,60.87,0,0,0,196.5,221a82,82,0,0,0-1.26,18.47,81.07,81.07,0,0,0,2.49,17.74,58.93,58.93,0,0,0,17.36,29.35,48,48,0,0,0,28.67,12.63,63.52,63.52,0,0,0,14.36-.34,50.5,50.5,0,0,0,22.64-8.67c8.85-6.21,15-14.57,19.13-24.46A74.59,74.59,0,0,0,305.24,237.11Z"/><path class="cls-1" d="M590.79,247.17H450.55c.19,1.73.34,3.34.55,4.94A62.18,62.18,0,0,0,457.39,273c6.6,12.61,16.54,21.18,30.46,24.79A57.49,57.49,0,0,0,507,299.26a50.06,50.06,0,0,0,12.75-2.62,40.36,40.36,0,0,0,14.91-9.46A126.84,126.84,0,0,0,550.26,268c1.4-2,2.74-4.11,4.19-6.27L592.59,283a6.26,6.26,0,0,1-.31.74,142.59,142.59,0,0,1-22.42,29.45,88.74,88.74,0,0,1-35,21.76,103.49,103.49,0,0,1-21.61,4.41,130,130,0,0,1-19.72.47c-13.63-.67-26.74-3.53-39.05-9.6a84.59,84.59,0,0,1-21.41-15c-14.52-14-23.16-31.12-27.19-50.74A141.44,141.44,0,0,1,403.34,231a123.86,123.86,0,0,1,6.76-37.67,94.26,94.26,0,0,1,17.15-30,83.36,83.36,0,0,1,44.37-27.32,109.57,109.57,0,0,1,28.1-3,108.2,108.2,0,0,1,28,3.87,80.75,80.75,0,0,1,36.17,21.27,87.58,87.58,0,0,1,20.26,33,123.26,123.26,0,0,1,6,27.92,195,195,0,0,1,.78,24C590.94,244.43,590.86,245.7,590.79,247.17ZM544.24,210c-.08-.4-.11-.7-.19-1a61.45,61.45,0,0,0-5.82-14.24,39.2,39.2,0,0,0-23.13-18.58A55.78,55.78,0,0,0,497.51,174a44.3,44.3,0,0,0-24.93,7.93c-9.64,6.69-15.55,16-18.73,27.16a5.59,5.59,0,0,0-.1.92Z"/><path class="cls-1" d="M82,339.55l-5-10.28L59.27,292.52Q48.83,270.87,38.4,249.21q-10.76-22.32-21.54-44.63C12.21,195,7.49,185.38,3,175.7a31.83,31.83,0,0,1,20-43.9,31.36,31.36,0,0,1,7.3-1.2c1.63-.08,1.64-.08,2.33,1.41l19.25,41.77L81.7,238.61c.23.49.47,1,.85,1.77q25.32-55.1,50.35-109.69h51L82.3,339.6Z"/><path class="cls-1" d="M155,103.1h4.16v24H155v-3.35a10.11,10.11,0,0,1-8.2,4c-6.06,0-11.66-4.27-11.66-12.7,0-8.26,5.54-12.53,11.66-12.53a9.91,9.91,0,0,1,8.2,4Zm-15.59,12c0,5.14,2.89,9,7.85,9s8-4.22,8-9c0-6.18-4.27-8.89-8-8.89C143.19,106.22,139.43,109.22,139.43,115.05Z"/><path class="cls-1" d="M167,103.1h4.16v2.54a7,7,0,0,1,5.95-3.12,7.17,7.17,0,0,1,6.52,3.87,8,8,0,0,1,7.22-3.87c7.1,0,7.79,5.95,7.79,9.35v15.19h-4.16V112.51c0-2.71-.35-6.29-4.27-6.29-4.79,0-5.31,4.62-5.31,7.51v13.34h-4.16v-14.2c0-1.67.06-6.64-4.33-6.64-4.73,0-5.25,4.91-5.25,7.79v13H167Z"/><path class="cls-1" d="M210.74,140.34h-4.16V103.1h4.16v3.35a10.3,10.3,0,0,1,8.2-3.93c7.51,0,11.66,6.24,11.66,12.7s-4.21,12.53-11.49,12.53a10.17,10.17,0,0,1-8.37-4Zm15.59-25.12c0-5.89-4-9-7.85-9s-8,3.18-8,8.95c0,4.91,3.12,8.89,8,8.89S226.33,120,226.33,115.23Z"/><path class="cls-1" d="M241.11,85v42.09H237V85Z"/><path class="cls-1" d="M251,91.09A2.94,2.94,0,1,1,248.1,94,3,3,0,0,1,251,91.09Zm2.08,12v24H249v-24Z"/><path class="cls-1" d="M265.25,106.91v20.15h-4.16V106.91h-2.31V103.1h2.31v-9c0-2.6.17-4.56,1.39-6.29s3.41-3.52,7.91-3.52c2,0,5.89.35,7.91,3.52a11.39,11.39,0,0,1,1.39,6.29v1h-4.16v-1a7.26,7.26,0,0,0-.81-3.75c-.69-1-2-1.85-4.33-1.85s-3.64.81-4.33,1.85a6.62,6.62,0,0,0-.81,3.75v9h5.89v3.81Zm14.43-3.81v24h-4.16v-24Z"/><path class="cls-1" d="M308.78,120.94a14.33,14.33,0,0,1-2.94,3.87,11.63,11.63,0,0,1-8,2.95c-5.77,0-11.84-3.64-11.84-12.53,0-7.16,4.39-12.7,11.61-12.7a10.72,10.72,0,0,1,9.06,4.39,16.09,16.09,0,0,1,2.25,9H290.31c.06,5,3.46,8.14,7.62,8.14a7.29,7.29,0,0,0,4.91-1.73,9.55,9.55,0,0,0,2.48-3.29Zm-4.1-8.49a7.17,7.17,0,0,0-7-6.24,7.28,7.28,0,0,0-7,6.24Z"/><path class="cls-1" d="M315.31,103.1h4.16v2.6a6.66,6.66,0,0,1,5.43-3.18,8.78,8.78,0,0,1,3.7,1l-2,3.75a4.28,4.28,0,0,0-2.43-.81,4,4,0,0,0-3.35,1.5c-.69.92-1.39,2.54-1.39,6.47v12.65h-4.16Z"/><path class="cls-1" d="M341.64,108.64a3.67,3.67,0,0,0-3.35-2.42,2.65,2.65,0,0,0-2.89,2.71c0,1.73,1.15,2.25,3.87,3.41,3.46,1.44,5.08,2.54,6,3.7a5.67,5.67,0,0,1,1.27,3.87c0,5-3.64,7.85-8.26,7.85a8.57,8.57,0,0,1-8.37-6.12l3.58-1.5c.46,1.27,1.85,3.93,4.85,3.93a3.72,3.72,0,0,0,3.93-3.81c0-2.25-1.62-3-3.87-4-2.89-1.27-4.73-2.19-5.83-3.52a5.2,5.2,0,0,1-1.1-3.52c0-4.22,2.94-6.7,7-6.7a6.91,6.91,0,0,1,6.58,4.33Z"/></g></g></svg>