<svg xmlns="http://www.w3.org/2000/svg" viewBox="0 0 524.58 151.68"><defs><style>.cls-1{fill:#7e9bc0;fill-rule:evenodd;}.cls-2{fill:#fff;}</style></defs><title>WhiteLogo</title><g id="Layer_2" data-name="Layer 2"><g id="Layer_1-2" data-name="Layer 1"><path class="cls-1" d="M111.63,124.95c-.65-2.48-.39-5.1-2.36-7-1.12-1.1-2.61-2-3.84-3-4.64-3.88-8.67-9.22-12-14.22a58.49,58.49,0,0,1-14.56,8.27,31,31,0,0,1,2.56,5.47c-16.34-1.59-32.75-1.51-49.1-2.92,3.9-4.82,7.57-9.67,11-14.83,2.52-3.78,5-7.58,7.54-11.35,1-1.43,1.92-2.85,2.92-4.25.06-.09,1.89-2.53,1.45-2.53-.83,0-2.23,1.71-2.75,2.22-1.93,1.89-3.73,3.92-5.5,6-3.61,4.13-7.07,8.39-10.5,12.67-2.29,2.85-4.68,5.66-6.78,8.65-.68,1-1.31,2-2.08,2.89-.68-.07-.62-1.16-1.57-.46a3,3,0,0,1-1.63.76c-1.19,0-.49-.87-.16-1.41q1.82-2.92,3.79-5.74c2.93-4.18,6.44-7.77,9.71-11.67C43.76,85.22,49.4,77.73,55,70.2c0-.11-.45,1.51-.09,1.15-.06.24-1.2,2.87-.92,2.87.88,0,3.39-2.79,3.9-3.59.1.26.88,0,.87.79a1.19,1.19,0,0,0-.16,1.09c.31.41,1,.54.6,1.09-.27.38-2.65,4.14-1.38,3.2.83-.61,2.61-1.84,3.06-2.75a19.1,19.1,0,0,1,2.57,5.08c1.65,4.39,4,8.22,6.1,12.38,1.19-.87,2.29-1.83,3.41-2.78,1.46-1.24.62-1,1.16-2.62.39-1.11,1.77-2,2.44-3,.91-1.36,2-2.59,2.95-3.93-2.85-5.44-5.5-11-8-16.59A82,82,0,0,1,67.5,51.5c-.4-1.35-.55-3.06-1.84-3.94-.9-.63-2.39-.58-2.88-2,1.63,0-.34-2.85-.52-3.19-.63-1.17-2-3.84-3.66-2.16-2.52,2.35-4.67,4.4-5.41,7.89C51.85,54.42,48.42,59.75,44.8,65c-1.21,1.77-2.49,3.49-3.69,5.27-.16.23-2.06,3.62-1.74,3.62,1,0,2.62-1.48,3.4-2A160.66,160.66,0,0,0,30,90.4c-2.59,4.34-6,8.35-9.07,12.36-1.73,2.25-3.73,4.25-5.5,6.47s-3.29,4.8-5.22,7c1.51-2.79,4-5.77,4.1-9.1-.5,0-2.09,2.56-2.38,2.92Q9.5,113.1,7.07,116.2c-1.44,1.83-2.87,3.66-4.26,5.53-.74,1-3.14,8-2.78,8,1.56,0,3.46-3.52,4.37-4.54.26.7-4.17,9.49-3.52,9.49.85,0,3.19-2.19,3.74-2.88-.3.95-2.82,9.26-3.21,9.26.67,0,1.39-2,1.9-2.36-.39,1.85,2.83-.39,3.23-.66a40.59,40.59,0,0,0,4.29-3.39c-.49,2-8.43,16.4-7.64,17,1.47.72,8.18-9.77,9-10.83,2.14-2.81,4.64-5.37,7-8,1-1.12,1.76-1,3.27-1.05,2.64-.17,5.28-.31,7.92-.45,3.62-.19,7.32-.62,10.95-.49,12,.42,24,.72,35.87,2.44,3.92.57,9.92.39,12.85,3.4,2.2,2.26,2.61-.92,4.47-.54s2.32.6,3.27-.93a6.11,6.11,0,0,1,2.19-2,8.57,8.57,0,0,1,2.85-1c1.2-.19,1.13-.51,1.94-1.36s1.19-2,2.18-2.24c1.79-.46,5.44-1,4.71-3.69C111.42,124.15,112,126.15,111.63,124.95Zm-89-18.69a8,8,0,0,1-.71.72c1.63-3.53,4.06-6.78,6.23-10A40.77,40.77,0,0,1,34,89.82c4-3.79,6.69-8.89,10.7-12.68a278.68,278.68,0,0,1-22,29.11ZM82.1,117.79a116,116,0,0,1-24.66-1.72c4.71.24,9.43.45,14.15.45a44.9,44.9,0,0,1,7,.26c.92.14,3.07,1,3.5,1Z"/><path class="cls-1" d="M66.23,36.52c-.18,1.79-1.9,7-3.81,3.43-.24-.85.51-1.72,1.05-2.26.38-.39,3-3.06,2.76-1.17Z"/><path class="cls-2" d="M111,56.9c.11-8.95-1.5-19.35-6.48-26.92a97,97,0,0,0-8.92-12,29.24,29.24,0,0,0-6.37-5.19c-2.51-1.55-6.51-4-9.56-4,.19,0,2.49,2.31,2.88,2.63,1.84,1.5,3.69,3,5.5,4.53A31.5,31.5,0,0,1,97.54,29.2,56.48,56.48,0,0,0,84.9,16.48c-3.32-2.44-7-5-11-6.16-6.74-1.9-14-3.95-21-2.4-3.73.83-7.36,1.17-10.88,2.62a46.57,46.57,0,0,0-11.2,6.59c-4.11,3.33-6.71,6.78-10.57,11.45,0-.25,2.07-4,1.5-4A37.18,37.18,0,0,0,17.08,29c-1,1.24-4.64,6.49-5.58,7.76.13-.39,1-5,1.09-5-.48,0-1.7,1.06-2.08,1.5.35-2.54.75-3.9,2.67-7.69C7.19,30.24,3.43,40.91,2,48.22a48,48,0,0,0,.29,19.43A46.71,46.71,0,0,0,7.19,81.17c3.56,6.71,9,11.93,14.64,16.93,3.43-4.5,6.44-9.09,9.45-13.88a30.51,30.51,0,0,1-7.72-5.64c-2.27-2.31-2.89-5-4.58-7.54.62.69,3.85,4.94,4.57,4.94.39,0-1.1-4.08-1.23-4.44A23.07,23.07,0,0,0,29.59,79c1.11.69,2.66,1.67,1.88-.52s-2.55-4.14-3.79-6.11c-3.76-6-7-12.34-7.59-19.46-.39-5,.84-11.62,3.39-15.94A72.66,72.66,0,0,1,29,29.12c.91-1.18,1.77-2.12,2.67-3.32.46-.61,3.31-3.59,3-4.2-.55-.53-7.69,5-8.45,5.43,2.47-4.52,7.56-8.86,12.14-11.15,3-1.47,6.44-3.31,9.7-3.94-.43.26-3.15,1.69-3.15,2.18a7.88,7.88,0,0,0,1.38,0c-1.25.87-2.46,1.79-3.75,2.6-.37.24-2.39,2.09-2.47,2.09.87,0,2.42-.94,3.26-1.23,1.46-.5,2.92-1,4.37-1.47-.22.2-2.25,2.07-2.23,2.09s7-2,8-1.85a46.29,46.29,0,0,0-18.24,9.35,51.93,51.93,0,0,0-7.53,7.58,32.37,32.37,0,0,0-2.78,5c-.29.56-2,7.58-1.62,7.58.16,0,2-4.56,2.16-5a32.53,32.53,0,0,1,2.89-5.28A32,32,0,0,1,34,29.32c4.6-4,9.35-7.31,15.25-9.19C60.6,16.51,73,17.31,81.63,26.42A38.16,38.16,0,0,1,91.3,43.08c1.75,7,2.83,15.48.57,22.45a88.13,88.13,0,0,1-3.5,8.8,31.45,31.45,0,0,1-4.11,7.07A51.82,51.82,0,0,1,77,88.79c-3.29,2.75-7.12,5.79-11.26,7.18-.25.08-.31.51-.05.6.64.22,2.08-.29,2.73-.44a40.46,40.46,0,0,0,7.39-2.47c-1.34.85-2.73,1.59-4,2.57-.53.41-2.72,2.55-3.15,2.55a17.73,17.73,0,0,0,2.92-.94c1.18-.38,2.16-.84,3.32-1.23a25.72,25.72,0,0,0,6.89-3.25c-2.81,3-6.56,5.2-10,7.44-.55.36-5.55,3.59-5.74,3.47,1.35,1.19,4.32-.6,5.67-1.14A75.85,75.85,0,0,0,88,94.29C91.23,92,94,89.2,97,86.69a31.14,31.14,0,0,1-13.19,14.06c-2.89,1.65-5.87,3.13-8.86,4.6-1.43.7-2.88,1.35-4.34,2a35.43,35.43,0,0,1-5.28,2.16,34.76,34.76,0,0,0,3.56,0,48.2,48.2,0,0,0,6-1.48,49.7,49.7,0,0,0,10.62-4.74,48.94,48.94,0,0,0,16.91-15.94A53.86,53.86,0,0,0,109,73.27C110.45,68.38,111,60.91,111,56.9ZM84.16,20.22c-1.56,0-4.45-2.25-5.88-3-2.57-1.27-5.16-2.48-7.81-3.57C69.33,13.23,60,10,60,9.84c.49-.8,5,.35,5.82.52A54.76,54.76,0,0,1,74.45,13a40.21,40.21,0,0,1,6.23,3.33C81.17,16.65,84.79,20.22,84.16,20.22Z"/><path class="cls-2" d="M34.52,8.5c-.07-.07-8.51,6.5-9.37,7.23a82.81,82.81,0,0,0-6.77,5.92c-1.25-1.69,6.1-6.79,7.22-7.75C26.41,13.19,33.72,7.73,34.52,8.5Z"/><path class="cls-2" d="M61.87,2.47c-.38,0-7.15-.64-7.15-.51,0-1,5.1-1.75,5.69-1.84s1.91-.31,2.42.43a1.24,1.24,0,0,1-1,1.93Z"/><path class="cls-2" d="M49.33,106.34a9.54,9.54,0,0,1-5.22,1.89c-2.45.25-4.58,1.05-7.09.73,5-6.27,9.27-13,13.74-19.68,2.22,2,4.27,4.85,3.55,8C54.28,97.83,51.93,104.35,49.33,106.34Z"/><path class="cls-2" d="M90.91,55.29A45,45,0,0,1,86.78,73.9,31.33,31.33,0,0,1,83.1,80,39.35,39.35,0,0,1,80,83.79a16.12,16.12,0,0,1-2.27,2.49s-1.81,1.23-1.64.54c.12-.37,1.15-.67,1.15-1.1.77-.86,1.3-1.92,2-2.81a52.18,52.18,0,0,0,5-7.36c1.7-2.89,2.07-6,3.14-9.1a35,35,0,0,0,1.86-13.93,54.1,54.1,0,0,0-.8-7c-.47-2.31-1.57-5-1.57-7.38,0-1,1.33,1.54,1.34,1.56a21.36,21.36,0,0,1,2,6,93.77,93.77,0,0,1,.71,9.61C90.9,57.75,90.91,54,90.91,55.29Z"/><path class="cls-2" d="M215.88,53.24a37.66,37.66,0,0,1-1.39,10.62,22.22,22.22,0,0,1-4.15,8,18.08,18.08,0,0,1-6.92,5.1,24.56,24.56,0,0,1-9.72,1.78,25,25,0,0,1-9.47-1.63,16.66,16.66,0,0,1-6.6-4.75,20.26,20.26,0,0,1-3.88-7.73,40,40,0,0,1-1.28-10.62,36.68,36.68,0,0,1,1.39-10.43,21.71,21.71,0,0,1,4.16-8A18.44,18.44,0,0,1,185,30.59,27.61,27.61,0,0,1,204,30.42a16.92,16.92,0,0,1,6.62,4.71,20,20,0,0,1,3.94,7.65A38.33,38.33,0,0,1,215.88,53.24Zm-6.83.45a38,38,0,0,0-.73-7.67,17.62,17.62,0,0,0-2.44-6.15,11.76,11.76,0,0,0-4.55-4.07,15.3,15.3,0,0,0-7-1.46,14.38,14.38,0,0,0-7,1.58,13.26,13.26,0,0,0-4.63,4.2,17.5,17.5,0,0,0-2.55,6.13,34.39,34.39,0,0,0-.77,7.37,40.64,40.64,0,0,0,.71,7.88,17.62,17.62,0,0,0,2.4,6.21,11.48,11.48,0,0,0,4.52,4.05,15.52,15.52,0,0,0,7.1,1.44,14.69,14.69,0,0,0,7.12-1.58,12.8,12.8,0,0,0,4.65-4.26,18,18,0,0,0,2.51-6.21A35.89,35.89,0,0,0,209,53.69Z"/><path class="cls-2" d="M283,77.1a1.16,1.16,0,0,1-.11.53.87.87,0,0,1-.49.38,4.27,4.27,0,0,1-1.05.23,17.2,17.2,0,0,1-1.8.07,13.83,13.83,0,0,1-1.59-.07,3.53,3.53,0,0,1-1-.24,1.35,1.35,0,0,1-.58-.47,2.94,2.94,0,0,1-.36-.75L271.6,65.32q-.79-1.95-1.63-3.58a11.51,11.51,0,0,0-2-2.81,8.26,8.26,0,0,0-2.74-1.84,9.86,9.86,0,0,0-3.79-.66h-4.31V77.1a.85.85,0,0,1-.17.53,1.11,1.11,0,0,1-.53.36,5.11,5.11,0,0,1-1,.23,13,13,0,0,1-3.11,0,5.61,5.61,0,0,1-1-.23,1,1,0,0,1-.53-.36.92.92,0,0,1-.15-.53V32.15a2.41,2.41,0,0,1,.77-2,2.66,2.66,0,0,1,1.63-.58h10.32q1.84,0,3.06.09t2.19.21a18.6,18.6,0,0,1,5,1.54A11.81,11.81,0,0,1,277.23,34a10.76,10.76,0,0,1,2.19,3.7,13.79,13.79,0,0,1,.73,4.6,13.54,13.54,0,0,1-.66,4.37,10.57,10.57,0,0,1-1.89,3.41,12.52,12.52,0,0,1-3,2.57,19,19,0,0,1-3.86,1.84A9.21,9.21,0,0,1,273,55.84a11.32,11.32,0,0,1,1.82,1.93,18.06,18.06,0,0,1,1.59,2.59q.75,1.46,1.5,3.3l4.35,10.69q.52,1.35.68,1.89A3.45,3.45,0,0,1,283,77.1ZM273.33,43a8.69,8.69,0,0,0-1.28-4.82,7.21,7.21,0,0,0-4.28-2.83,12.26,12.26,0,0,0-2.12-.38q-1.18-.11-3.09-.11h-5.44V51.21h6.3a14,14,0,0,0,4.41-.62,8.7,8.7,0,0,0,3.1-1.73,6.7,6.7,0,0,0,1.82-2.61A9,9,0,0,0,273.33,43Z"/><path class="cls-2" d="M323.43,77.1a.93.93,0,0,1-.15.53,1,1,0,0,1-.53.36,5.62,5.62,0,0,1-1,.23,12.85,12.85,0,0,1-3.09,0,5.61,5.61,0,0,1-1-.23,1,1,0,0,1-.53-.36.92.92,0,0,1-.15-.53V30.5a.85.85,0,0,1,.17-.52,1.13,1.13,0,0,1,.56-.36,6.38,6.38,0,0,1,1-.22,10.12,10.12,0,0,1,1.48-.09,10.76,10.76,0,0,1,1.56.09,5.8,5.8,0,0,1,1,.22,1,1,0,0,1,.53.36.93.93,0,0,1,.15.52Z"/><path class="cls-2" d="M397.39,36.13a9.5,9.5,0,0,1-.08,1.26,3.7,3.7,0,0,1-.22.9,1.1,1.1,0,0,1-.38.51.86.86,0,0,1-.49.15,3.39,3.39,0,0,1-1.5-.71,24.15,24.15,0,0,0-2.81-1.58,26.55,26.55,0,0,0-4.22-1.58,21.13,21.13,0,0,0-5.83-.71,17.07,17.07,0,0,0-7.2,1.46,15.5,15.5,0,0,0-5.4,4.05,18.12,18.12,0,0,0-3.4,6.15,24.41,24.41,0,0,0-1.18,7.73A24.33,24.33,0,0,0,366,62a17.56,17.56,0,0,0,3.58,6.08A14.89,14.89,0,0,0,375,71.84a18.46,18.46,0,0,0,7,1.28,19.77,19.77,0,0,0,4.56-.54,17,17,0,0,0,4.3-1.63V56.8H379.57a1,1,0,0,1-1-.64,4.65,4.65,0,0,1-.32-2,8.34,8.34,0,0,1,.07-1.22,2.54,2.54,0,0,1,.24-.82,1.26,1.26,0,0,1,.39-.47,1,1,0,0,1,.56-.15H395a2.43,2.43,0,0,1,.83.15,2.34,2.34,0,0,1,.75.45,2,2,0,0,1,.53.83,3.61,3.61,0,0,1,.19,1.2v18.5a3.9,3.9,0,0,1-.34,1.69,2.94,2.94,0,0,1-1.43,1.26,28.54,28.54,0,0,1-2.81,1.18,32.6,32.6,0,0,1-3.56,1.09,31.45,31.45,0,0,1-7.43.9A27.26,27.26,0,0,1,371.65,77a20.46,20.46,0,0,1-7.48-5,21.7,21.7,0,0,1-4.67-7.73,29.6,29.6,0,0,1-1.61-10.05,29.84,29.84,0,0,1,1.74-10.47,22.9,22.9,0,0,1,4.92-8,21.94,21.94,0,0,1,7.62-5.12A25.78,25.78,0,0,1,382,28.85a26.65,26.65,0,0,1,5.21.49,33.56,33.56,0,0,1,4.33,1.14,17.65,17.65,0,0,1,3.19,1.43,9.91,9.91,0,0,1,1.78,1.26,2.63,2.63,0,0,1,.68,1.13A7,7,0,0,1,397.39,36.13Z"/><path class="cls-2" d="M440.44,77.1a.93.93,0,0,1-.15.53,1,1,0,0,1-.53.36,5.65,5.65,0,0,1-1,.23,12.85,12.85,0,0,1-3.1,0,5.59,5.59,0,0,1-1-.23,1,1,0,0,1-.53-.36.91.91,0,0,1-.15-.53V30.5a.85.85,0,0,1,.17-.52,1.13,1.13,0,0,1,.56-.36,6.37,6.37,0,0,1,1-.22,10.12,10.12,0,0,1,1.48-.09,10.77,10.77,0,0,1,1.56.09,5.84,5.84,0,0,1,1,.22,1,1,0,0,1,.53.36.93.93,0,0,1,.15.52Z"/><path class="cls-2" d="M514.62,75.41a3,3,0,0,1-.25,1.28,2.52,2.52,0,0,1-.66.86,2.55,2.55,0,0,1-.91.49,3.54,3.54,0,0,1-1,.15h-2.14a6.76,6.76,0,0,1-1.76-.21,3.91,3.91,0,0,1-1.44-.75,7.52,7.52,0,0,1-1.36-1.48,19.6,19.6,0,0,1-1.44-2.4L488.85,45.73q-1.16-2.14-2.34-4.48t-2.19-4.56h-.08q.07,2.7.11,5.52t0,5.59V77.1a.92.92,0,0,1-.16.51,1,1,0,0,1-.54.38,5.57,5.57,0,0,1-1,.23,13.12,13.12,0,0,1-3.13,0,5.06,5.06,0,0,1-1-.23,1,1,0,0,1-.51-.38.9.9,0,0,1-.16-.51V32.3a2.5,2.5,0,0,1,.85-2.14,3,3,0,0,1,1.86-.64h3.18a8,8,0,0,1,1.88.19,4,4,0,0,1,1.36.62,5.38,5.38,0,0,1,1.16,1.2,16.31,16.31,0,0,1,1.18,1.93l11.38,21.31q1.05,2,2,3.81t1.89,3.66l1.79,3.55q.89,1.74,1.76,3.51h0q-.08-3-.09-6.17t0-6.17V30.61a.82.82,0,0,1,.16-.49,1.25,1.25,0,0,1,.53-.39,3.55,3.55,0,0,1,1-.24,13.81,13.81,0,0,1,1.6-.07,13.09,13.09,0,0,1,1.5.07,3.32,3.32,0,0,1,1,.24,1.31,1.31,0,0,1,.51.39.84.84,0,0,1,.16.49Z"/><path class="cls-2" d="M198.49,115.94a2.7,2.7,0,0,1,.18.76.53.53,0,0,1-.16.44,1,1,0,0,1-.57.19,10.49,10.49,0,0,1-1.06,0q-.66,0-1.06,0a2.44,2.44,0,0,1-.6-.11.64.64,0,0,1-.3-.2,1.64,1.64,0,0,1-.18-.32L192.36,110H180.83l-2.27,6.67a1.12,1.12,0,0,1-.17.33.83.83,0,0,1-.31.24,2,2,0,0,1-.58.14,9,9,0,0,1-1,0,8,8,0,0,1-1-.05,1,1,0,0,1-.56-.2.54.54,0,0,1-.15-.44,2.65,2.65,0,0,1,.18-.76l9.3-25.77a1.13,1.13,0,0,1,.23-.39.94.94,0,0,1,.41-.24,3.09,3.09,0,0,1,.69-.12q.42,0,1.06,0t1.14,0a3.4,3.4,0,0,1,.73.12,1,1,0,0,1,.43.25,1.16,1.16,0,0,1,.24.4ZM186.55,93.19h0L181.75,107h9.65Z"/><path class="cls-2" d="M238.89,113.32c0,.23,0,.43,0,.6a2.55,2.55,0,0,1-.07.45,1.53,1.53,0,0,1-.14.34,1.87,1.87,0,0,1-.3.36,6.12,6.12,0,0,1-.9.65,10.72,10.72,0,0,1-1.7.86,14.13,14.13,0,0,1-2.34.71,13.43,13.43,0,0,1-2.88.29,12.65,12.65,0,0,1-4.88-.9,9.84,9.84,0,0,1-3.71-2.66,12.1,12.1,0,0,1-2.36-4.34,21.78,21.78,0,0,1,.06-12.1,13.36,13.36,0,0,1,2.5-4.58A10.67,10.67,0,0,1,226,90.15a12.2,12.2,0,0,1,5-1,12,12,0,0,1,2.34.23,15,15,0,0,1,2.1.57,9.6,9.6,0,0,1,1.72.79,5.83,5.83,0,0,1,1,.74,2.58,2.58,0,0,1,.38.44,1.51,1.51,0,0,1,.14.35,3.52,3.52,0,0,1,.09.48,5.9,5.9,0,0,1,0,.66,5.23,5.23,0,0,1,0,.73,2,2,0,0,1-.13.5.76.76,0,0,1-.2.3.45.45,0,0,1-.29.1,1.6,1.6,0,0,1-.84-.42,13.92,13.92,0,0,0-1.39-.92,11.35,11.35,0,0,0-2.07-.92,9,9,0,0,0-2.92-.42,7.61,7.61,0,0,0-3.37.74,7.13,7.13,0,0,0-2.6,2.18,10.7,10.7,0,0,0-1.67,3.51,19.25,19.25,0,0,0,0,9.39,9.68,9.68,0,0,0,1.64,3.39,6.84,6.84,0,0,0,2.62,2.06,8.49,8.49,0,0,0,3.51.7,9.28,9.28,0,0,0,2.9-.41A11.22,11.22,0,0,0,236,113a16.4,16.4,0,0,0,1.43-.91,1.72,1.72,0,0,1,.88-.41.49.49,0,0,1,.26.06.45.45,0,0,1,.17.25,2.26,2.26,0,0,1,.1.5C238.88,112.72,238.89,113,238.89,113.32Z"/><path class="cls-2" d="M284.19,103.06a21.53,21.53,0,0,1-.79,6.07,12.7,12.7,0,0,1-2.37,4.6,10.33,10.33,0,0,1-4,2.92,14,14,0,0,1-5.55,1,14.27,14.27,0,0,1-5.41-.93,9.51,9.51,0,0,1-3.77-2.71,11.57,11.57,0,0,1-2.22-4.42,22.81,22.81,0,0,1-.73-6.07,20.94,20.94,0,0,1,.79-6A12.4,12.4,0,0,1,262.56,93a10.54,10.54,0,0,1,4-2.89,15.78,15.78,0,0,1,10.89-.1,9.67,9.67,0,0,1,3.78,2.69,11.44,11.44,0,0,1,2.25,4.37A21.92,21.92,0,0,1,284.19,103.06Zm-3.9.26a21.7,21.7,0,0,0-.42-4.38,10.08,10.08,0,0,0-1.39-3.52,6.72,6.72,0,0,0-2.6-2.33,8.74,8.74,0,0,0-4-.84,8.22,8.22,0,0,0-4,.9,7.58,7.58,0,0,0-2.64,2.4,10,10,0,0,0-1.46,3.51,19.64,19.64,0,0,0-.44,4.21,23.23,23.23,0,0,0,.41,4.5,10.06,10.06,0,0,0,1.37,3.55,6.57,6.57,0,0,0,2.58,2.32,8.87,8.87,0,0,0,4.06.82,8.4,8.4,0,0,0,4.07-.9,7.31,7.31,0,0,0,2.66-2.43,10.3,10.3,0,0,0,1.43-3.55A20.49,20.49,0,0,0,280.29,103.31Z"/><path class="cls-2" d="M328.45,107a12.84,12.84,0,0,1-.74,4.51,9.22,9.22,0,0,1-2.11,3.35,8.91,8.91,0,0,1-3.34,2.08,13.22,13.22,0,0,1-4.48.71,12.54,12.54,0,0,1-4.18-.66,8.83,8.83,0,0,1-3.24-2,8.58,8.58,0,0,1-2.08-3.25,12.8,12.8,0,0,1-.73-4.5V90.06a.53.53,0,0,1,.09-.3.57.57,0,0,1,.3-.2,3.33,3.33,0,0,1,.56-.13,6.19,6.19,0,0,1,.9-.05,6.3,6.3,0,0,1,.88.05,3,3,0,0,1,.57.13.58.58,0,0,1,.29.2.53.53,0,0,1,.09.3v16.76a10.79,10.79,0,0,0,.47,3.37,6.34,6.34,0,0,0,1.36,2.39,5.66,5.66,0,0,0,2.14,1.44,7.8,7.8,0,0,0,2.82.48,8.08,8.08,0,0,0,2.86-.47,5.42,5.42,0,0,0,2.12-1.42,6.33,6.33,0,0,0,1.33-2.34,10.41,10.41,0,0,0,.46-3.26v-17a.53.53,0,0,1,.09-.3.57.57,0,0,1,.3-.2,3.32,3.32,0,0,1,.57-.13,6.24,6.24,0,0,1,.89-.05,6.06,6.06,0,0,1,.87.05,3,3,0,0,1,.56.13.65.65,0,0,1,.3.2.49.49,0,0,1,.1.3Z"/><path class="cls-2" d="M368.22,109.47a8,8,0,0,1-.72,3.47,7.47,7.47,0,0,1-2,2.58,8.62,8.62,0,0,1-3,1.6,12.5,12.5,0,0,1-3.72.54,13.35,13.35,0,0,1-2.58-.24,14.18,14.18,0,0,1-2.12-.58,10,10,0,0,1-1.56-.71,4.13,4.13,0,0,1-.88-.62,1.57,1.57,0,0,1-.36-.65,3.88,3.88,0,0,1-.12-1.06,5.83,5.83,0,0,1,0-.78,2,2,0,0,1,.13-.5.56.56,0,0,1,.21-.27.59.59,0,0,1,.3-.08,1.75,1.75,0,0,1,.85.36,13.09,13.09,0,0,0,1.4.79,13.56,13.56,0,0,0,2.07.8,9.45,9.45,0,0,0,2.8.38,7.13,7.13,0,0,0,2.2-.32,5.17,5.17,0,0,0,1.72-.91,3.92,3.92,0,0,0,1.1-1.45,4.7,4.7,0,0,0,.39-2,3.67,3.67,0,0,0-.54-2,5.39,5.39,0,0,0-1.42-1.47,12.61,12.61,0,0,0-2-1.16l-2.3-1.07a24.86,24.86,0,0,1-2.29-1.21,9.76,9.76,0,0,1-2-1.56,7.27,7.27,0,0,1-1.43-2.11,7,7,0,0,1-.55-2.91,7.29,7.29,0,0,1,.63-3.1A6.38,6.38,0,0,1,354.23,91a7.86,7.86,0,0,1,2.68-1.4,11.27,11.27,0,0,1,3.36-.48,10.89,10.89,0,0,1,1.85.16,12.68,12.68,0,0,1,1.76.43,10,10,0,0,1,1.47.6,3.9,3.9,0,0,1,.85.54,1.64,1.64,0,0,1,.27.32,1.28,1.28,0,0,1,.11.3,2.82,2.82,0,0,1,.06.44c0,.17,0,.39,0,.66a6.37,6.37,0,0,1,0,.69,2.58,2.58,0,0,1-.1.5.62.62,0,0,1-.18.3.41.41,0,0,1-.27.1,1.71,1.71,0,0,1-.74-.3c-.33-.2-.75-.43-1.23-.68a11,11,0,0,0-1.73-.69,7.55,7.55,0,0,0-2.24-.31,5.94,5.94,0,0,0-2,.31,4.16,4.16,0,0,0-1.42.83,3.26,3.26,0,0,0-.84,1.22,4.08,4.08,0,0,0-.28,1.5,3.62,3.62,0,0,0,.54,2,5.48,5.48,0,0,0,1.43,1.48,12.57,12.57,0,0,0,2,1.18l2.32,1.08q1.18.55,2.32,1.2a9.68,9.68,0,0,1,2,1.54,7.06,7.06,0,0,1,1.44,2.1A6.91,6.91,0,0,1,368.22,109.47Z"/><path class="cls-2" d="M408.14,91.09a5.37,5.37,0,0,1,0,.71,1.5,1.5,0,0,1-.14.48.68.68,0,0,1-.24.27.59.59,0,0,1-.31.09h-7.8v24.05a.53.53,0,0,1-.09.3.58.58,0,0,1-.3.2,3.29,3.29,0,0,1-.57.13,7.28,7.28,0,0,1-1.77,0,3.22,3.22,0,0,1-.58-.13.56.56,0,0,1-.3-.2.51.51,0,0,1-.09-.3V92.64h-7.8a.57.57,0,0,1-.31-.09.59.59,0,0,1-.23-.27,1.83,1.83,0,0,1-.14-.48,3.89,3.89,0,0,1-.05-.71,4.08,4.08,0,0,1,.05-.72,2,2,0,0,1,.14-.5.55.55,0,0,1,.54-.36h19.3a.6.6,0,0,1,.31.09.68.68,0,0,1,.24.28,1.67,1.67,0,0,1,.14.5A5.65,5.65,0,0,1,408.14,91.09Z"/><path class="cls-2" d="M433.4,116.69a.53.53,0,0,1-.09.3.57.57,0,0,1-.3.2,3.22,3.22,0,0,1-.57.13,7.28,7.28,0,0,1-1.77,0,3.21,3.21,0,0,1-.58-.13.57.57,0,0,1-.3-.2.53.53,0,0,1-.09-.3V90.06a.49.49,0,0,1,.1-.3.65.65,0,0,1,.32-.2,3.67,3.67,0,0,1,.58-.13,5.87,5.87,0,0,1,.85-.05,6.24,6.24,0,0,1,.89.05,3.3,3.3,0,0,1,.57.13.58.58,0,0,1,.3.2.54.54,0,0,1,.09.3Z"/><path class="cls-2" d="M476.86,113.32c0,.23,0,.43,0,.6a2.68,2.68,0,0,1-.07.45,1.62,1.62,0,0,1-.14.34,2,2,0,0,1-.3.36,6.3,6.3,0,0,1-.9.65,10.81,10.81,0,0,1-1.7.86,14.15,14.15,0,0,1-2.34.71,13.44,13.44,0,0,1-2.88.29,12.64,12.64,0,0,1-4.88-.9,9.83,9.83,0,0,1-3.71-2.66,12.06,12.06,0,0,1-2.36-4.34,21.78,21.78,0,0,1,.06-12.1,13.35,13.35,0,0,1,2.5-4.58A10.67,10.67,0,0,1,464,90.15a12.19,12.19,0,0,1,5-1,12,12,0,0,1,2.34.23,15.12,15.12,0,0,1,2.1.57,9.64,9.64,0,0,1,1.72.79,5.89,5.89,0,0,1,1,.74,2.62,2.62,0,0,1,.38.44,1.58,1.58,0,0,1,.14.35,3.6,3.6,0,0,1,.09.48,5.89,5.89,0,0,1,0,.66,5.56,5.56,0,0,1,0,.73,2,2,0,0,1-.13.5.76.76,0,0,1-.2.3.45.45,0,0,1-.29.1,1.6,1.6,0,0,1-.84-.42,13.7,13.7,0,0,0-1.39-.92,11.36,11.36,0,0,0-2.07-.92,9,9,0,0,0-2.92-.42,7.61,7.61,0,0,0-3.37.74,7.12,7.12,0,0,0-2.6,2.18,10.68,10.68,0,0,0-1.67,3.51,19.25,19.25,0,0,0,0,9.39,9.7,9.7,0,0,0,1.64,3.39,6.82,6.82,0,0,0,2.62,2.06,8.49,8.49,0,0,0,3.51.7,9.28,9.28,0,0,0,2.9-.41A11.2,11.2,0,0,0,474,113a16.63,16.63,0,0,0,1.43-.91,1.71,1.71,0,0,1,.88-.41.49.49,0,0,1,.26.06.44.44,0,0,1,.17.25,2.23,2.23,0,0,1,.1.5Q476.86,112.83,476.86,113.32Z"/><path class="cls-2" d="M514.21,109.47a8.07,8.07,0,0,1-.72,3.47,7.47,7.47,0,0,1-2,2.58,8.65,8.65,0,0,1-3,1.6,12.52,12.52,0,0,1-3.72.54,13.34,13.34,0,0,1-2.58-.24,14.16,14.16,0,0,1-2.12-.58,10,10,0,0,1-1.56-.71,4.07,4.07,0,0,1-.88-.62,1.54,1.54,0,0,1-.36-.65,3.79,3.79,0,0,1-.12-1.06,5.75,5.75,0,0,1,0-.78,1.78,1.78,0,0,1,.13-.5.56.56,0,0,1,.21-.27.59.59,0,0,1,.3-.08,1.76,1.76,0,0,1,.85.36,12.91,12.91,0,0,0,1.4.79,13.47,13.47,0,0,0,2.07.8,9.45,9.45,0,0,0,2.8.38,7.14,7.14,0,0,0,2.2-.32,5.16,5.16,0,0,0,1.71-.91,3.94,3.94,0,0,0,1.1-1.45,4.7,4.7,0,0,0,.39-2,3.67,3.67,0,0,0-.54-2,5.46,5.46,0,0,0-1.42-1.47,12.61,12.61,0,0,0-2-1.16l-2.3-1.07a24.61,24.61,0,0,1-2.29-1.21,9.64,9.64,0,0,1-2-1.56,7.26,7.26,0,0,1-1.43-2.11,7,7,0,0,1-.55-2.91,7.24,7.24,0,0,1,.63-3.1A6.39,6.39,0,0,1,500.23,91a7.86,7.86,0,0,1,2.68-1.4,11.26,11.26,0,0,1,3.36-.48,10.89,10.89,0,0,1,1.85.16,12.76,12.76,0,0,1,1.76.43,10,10,0,0,1,1.47.6,3.87,3.87,0,0,1,.85.54,1.77,1.77,0,0,1,.27.32,1.28,1.28,0,0,1,.11.3,3.64,3.64,0,0,1,.06.44c0,.17,0,.39,0,.66a6.49,6.49,0,0,1,0,.69,2.61,2.61,0,0,1-.1.5.62.62,0,0,1-.18.3.42.42,0,0,1-.27.1,1.71,1.71,0,0,1-.74-.3c-.34-.2-.75-.43-1.23-.68a11.09,11.09,0,0,0-1.73-.69,7.55,7.55,0,0,0-2.24-.31,5.94,5.94,0,0,0-2,.31,4.11,4.11,0,0,0-1.41.83,3.26,3.26,0,0,0-.84,1.22,4,4,0,0,0-.28,1.5,3.6,3.6,0,0,0,.54,2,5.44,5.44,0,0,0,1.43,1.48,12.55,12.55,0,0,0,2,1.18l2.32,1.08q1.18.55,2.32,1.2a9.82,9.82,0,0,1,2,1.54,7.06,7.06,0,0,1,1.44,2.1A6.91,6.91,0,0,1,514.21,109.47Z"/><path class="cls-2" d="M521,88.8a3.61,3.61,0,1,0,3.62,3.62A3.61,3.61,0,0,0,521,88.8Zm2,5.61-.23-.37a5,5,0,0,1-.32-1,1.23,1.23,0,0,0-.27-.51,1.15,1.15,0,0,0,.48-1c0-.38-.17-1.26-1.76-1.26a7.88,7.88,0,0,0-1.1.08l-.26,0v4h1V92.94h.37c.33,0,.44.12.52.45a3.71,3.71,0,0,0,.3,1l.09.14h1.06a3,3,0,1,1,.08-.08Zm-1.38-2.75c0,.31-.37.36-.6.36h-.45V91.3h.35C521.53,91.28,521.53,91.55,521.53,91.65Z"/></g></g></svg>